<?xml version="1.0" standalone="no"?><!DOCTYPE svg PUBLIC "-//W3C//DTD SVG 1.1//EN" "http://www.w3.org/Graphics/SVG/1.1/DTD/svg11.dtd"><svg t="1527594762449" class="icon" style="" viewBox="0 0 1024 1024" version="1.1" xmlns="http://www.w3.org/2000/svg" p-id="4852" id="mx_n_1527594762451" xmlns:xlink="http://www.w3.org/1999/xlink" width="16" height="16"><defs><style type="text/css"></style></defs><path d="M597.333333 256l-170.666667 0C409.6 256 396.8 247.466667 388.266667 230.4l-85.333333-170.666667C298.666667 46.933333 298.666667 34.133333 302.933333 21.333333S328.533333 0 341.333333 0l341.333333 0c12.8 0 29.866667 8.533333 38.4 21.333333s8.533333 29.866667 0 42.666667l-85.333333 170.666667C627.2 247.466667 614.4 256 597.333333 256zM452.266667 170.666667l119.466667 0 42.666667-85.333333L409.6 85.333333 452.266667 170.666667z" p-id="4853" fill="#555555"></path><path d="M725.333333 810.666667c-21.333333 0-38.4-12.8-42.666667-34.133333L563.2 256l-102.4 0L341.333333 776.533333c-4.266667 21.333333-29.866667 38.4-51.2 34.133333-21.333333-4.266667-38.4-29.866667-34.133333-51.2l128-554.666667C388.266667 183.466667 405.333333 170.666667 426.666667 170.666667l170.666667 0c21.333333 0 38.4 12.8 42.666667 34.133333l128 554.666667c4.266667 21.333333-8.533333 46.933333-34.133333 51.2C729.6 810.666667 729.6 810.666667 725.333333 810.666667z" p-id="4854" fill="#555555"></path><path d="M512 1024c-12.8 0-21.333333-4.266667-29.866667-12.8l-213.333333-213.333333c-17.066667-17.066667-17.066667-42.666667 0-59.733333s42.666667-17.066667 59.733333 0l183.466667 183.466667 183.466667-183.466667c17.066667-17.066667 42.666667-17.066667 59.733333 0s17.066667 42.666667 0 59.733333l-213.333333 213.333333C533.333333 1019.733333 524.8 1024 512 1024z" p-id="4855" fill="#555555"></path></svg>